<svg width="45" height="46" viewBox="0 0 45 46" fill="none" xmlns="http://www.w3.org/2000/svg">
<path d="M11.177 22V31H9.01695V22H11.177ZM14.687 30.4L15.032 31H11.147V30.4H14.687ZM14.177 26.245V26.845H11.147V26.245H14.177ZM14.852 22V22.6H11.147V22H14.852ZM15.647 28.24L15.077 31H12.482L12.947 30.4C13.377 30.4 13.757 30.315 14.087 30.145C14.427 29.965 14.717 29.715 14.957 29.395C15.197 29.065 15.382 28.68 15.512 28.24H15.647ZM14.177 26.815V28.135H14.027V28.015C14.027 27.685 13.922 27.41 13.712 27.19C13.512 26.97 13.237 26.855 12.887 26.845V26.815H14.177ZM14.177 24.955V26.275H12.887V26.245C13.237 26.235 13.512 26.12 13.712 25.9C13.922 25.67 14.027 25.39 14.027 25.06V24.955H14.177ZM14.852 22.57V24.16H14.702V24.025C14.702 23.585 14.582 23.24 14.342 22.99C14.112 22.74 13.777 22.61 13.337 22.6V22.57H14.852ZM14.852 21.775V22.135L13.277 22C13.567 22 13.872 21.975 14.192 21.925C14.512 21.865 14.732 21.815 14.852 21.775ZM9.04695 30.055L9.12195 31H8.01195V30.85C8.01195 30.85 8.04195 30.85 8.10195 30.85C8.16195 30.85 8.19695 30.85 8.20695 30.85C8.42695 30.85 8.61195 30.775 8.76195 30.625C8.92195 30.465 9.00695 30.275 9.01695 30.055H9.04695ZM9.04695 22.945H9.01695C9.00695 22.715 8.92195 22.525 8.76195 22.375C8.61195 22.225 8.42695 22.15 8.20695 22.15C8.19695 22.15 8.16195 22.15 8.10195 22.15C8.04195 22.15 8.01195 22.15 8.01195 22.15V22H9.12195L9.04695 22.945ZM17.3338 21.79L26.1388 29.53L26.2888 31.195L17.4988 23.455L17.3338 21.79ZM17.3938 30.085V31H16.2838V30.85C16.2838 30.85 16.3238 30.85 16.4038 30.85C16.4838 30.85 16.5238 30.85 16.5238 30.85C16.7538 30.85 16.9488 30.78 17.1088 30.64C17.2688 30.49 17.3488 30.305 17.3488 30.085H17.3938ZM19.4038 30.085C19.4138 30.305 19.4988 30.49 19.6588 30.64C19.8188 30.78 20.0088 30.85 20.2288 30.85C20.2288 30.85 20.2688 30.85 20.3488 30.85C20.4388 30.85 20.4838 30.85 20.4838 30.85V31H19.3738V30.085H19.4038ZM17.3338 21.79L19.4038 24.04V31H17.3488V23.5C17.3488 22.99 17.3238 22.58 17.2738 22.27C17.2238 21.95 17.1988 21.79 17.1988 21.79H17.3338ZM26.2738 22V29.44C26.2738 29.79 26.2838 30.1 26.3038 30.37C26.3338 30.63 26.3588 30.835 26.3788 30.985C26.4088 31.125 26.4238 31.195 26.4238 31.195H26.2888L24.2188 28.81V22H26.2738ZM26.2288 22.915V22H27.3538V22.15C27.3538 22.15 27.3088 22.15 27.2188 22.15C27.1388 22.15 27.0988 22.15 27.0988 22.15C26.8788 22.15 26.6838 22.225 26.5138 22.375C26.3538 22.515 26.2738 22.695 26.2738 22.915H26.2288ZM24.2188 22.915C24.2088 22.695 24.1238 22.515 23.9638 22.375C23.8138 22.225 23.6238 22.15 23.3938 22.15C23.3938 22.15 23.3488 22.15 23.2588 22.15C23.1788 22.15 23.1388 22.15 23.1388 22.15V22H24.2488V22.915H24.2188ZM33.091 21.805C33.551 21.805 34.011 21.835 34.471 21.895C34.941 21.945 35.376 22.025 35.776 22.135C36.186 22.235 36.531 22.355 36.811 22.495V24.88H36.691C36.531 24.24 36.291 23.74 35.971 23.38C35.661 23.02 35.301 22.765 34.891 22.615C34.481 22.465 34.036 22.39 33.556 22.39C32.856 22.39 32.266 22.555 31.786 22.885C31.306 23.215 30.941 23.695 30.691 24.325C30.451 24.945 30.331 25.695 30.331 26.575C30.331 27.405 30.441 28.12 30.661 28.72C30.881 29.32 31.206 29.785 31.636 30.115C32.066 30.445 32.586 30.61 33.196 30.61C33.516 30.61 33.821 30.56 34.111 30.46C34.401 30.35 34.656 30.195 34.876 29.995C35.096 29.785 35.251 29.53 35.341 29.23L35.356 27.43C35.356 27.23 35.296 27.08 35.176 26.98C35.066 26.88 34.906 26.83 34.696 26.83H34.486V26.695H38.341V26.83H38.146C37.706 26.83 37.491 27.03 37.501 27.43V29.425C37.291 29.705 36.966 29.98 36.526 30.25C36.086 30.52 35.566 30.745 34.966 30.925C34.366 31.105 33.711 31.195 33.001 31.195C32.001 31.185 31.131 30.995 30.391 30.625C29.651 30.245 29.076 29.705 28.666 29.005C28.256 28.305 28.051 27.465 28.051 26.485C28.051 25.505 28.256 24.67 28.666 23.98C29.076 23.28 29.656 22.745 30.406 22.375C31.156 21.995 32.051 21.805 33.091 21.805Z" fill="#373232"/>
<rect x="0.5" y="0.5" width="44" height="45" stroke="black"/>
</svg>
