<svg width="45" height="46" viewBox="0 0 45 46" fill="none" xmlns="http://www.w3.org/2000/svg">
<rect x="0.5" y="0.5" width="44" height="45" stroke="black"/>
<path d="M16.9642 19.5V30H14.7142V19.5H16.9642ZM20.3692 24.51V25.14H16.9192V24.51H20.3692ZM21.1042 19.5V20.145H16.9192V19.5H21.1042ZM20.3692 25.11V26.55H20.2192V26.43C20.2192 26.06 20.0992 25.755 19.8592 25.515C19.6192 25.275 19.3142 25.15 18.9442 25.14V25.11H20.3692ZM20.3692 23.1V24.54H18.9442V24.51C19.3142 24.5 19.6192 24.375 19.8592 24.135C20.0992 23.885 20.2192 23.575 20.2192 23.205V23.1H20.3692ZM21.1042 20.1V21.765H20.9542V21.615C20.9542 21.165 20.8192 20.81 20.5492 20.55C20.2892 20.28 19.9342 20.145 19.4842 20.145V20.1H21.1042ZM21.1042 19.23V19.665L19.2742 19.5C19.4942 19.5 19.7242 19.485 19.9642 19.455C20.2142 19.425 20.4442 19.39 20.6542 19.35C20.8642 19.31 21.0142 19.27 21.1042 19.23ZM14.7592 28.905V30H13.5592V29.85C13.5592 29.85 13.5892 29.85 13.6492 29.85C13.7192 29.85 13.7542 29.85 13.7542 29.85C14.0142 29.85 14.2342 29.76 14.4142 29.58C14.6042 29.39 14.7042 29.165 14.7142 28.905H14.7592ZM14.7592 20.595H14.7142C14.7042 20.335 14.6042 20.115 14.4142 19.935C14.2342 19.745 14.0142 19.65 13.7542 19.65C13.7542 19.65 13.7192 19.65 13.6492 19.65C13.5892 19.65 13.5592 19.65 13.5592 19.65V19.5H14.7592V20.595ZM16.9192 28.905H16.9642C16.9742 29.165 17.0692 29.39 17.2492 29.58C17.4392 29.76 17.6642 29.85 17.9242 29.85C17.9242 29.85 17.9542 29.85 18.0142 29.85C18.0742 29.85 18.1092 29.85 18.1192 29.85V30H16.9192V28.905ZM25.7497 19.5H27.6847C28.1347 19.5 28.5747 19.55 29.0047 19.65C29.4347 19.75 29.8147 19.91 30.1447 20.13C30.4847 20.35 30.7547 20.64 30.9547 21C31.1547 21.36 31.2547 21.805 31.2547 22.335C31.2547 22.755 31.1647 23.175 30.9847 23.595C30.8147 24.005 30.5497 24.36 30.1897 24.66C29.8297 24.95 29.3647 25.125 28.7947 25.185C29.1147 25.285 29.4047 25.465 29.6647 25.725C29.9347 25.985 30.1547 26.245 30.3247 26.505C30.3347 26.525 30.3897 26.615 30.4897 26.775C30.5997 26.935 30.7297 27.135 30.8797 27.375C31.0397 27.605 31.2047 27.84 31.3747 28.08C31.5447 28.32 31.6997 28.53 31.8397 28.71C32.0597 28.98 32.2597 29.2 32.4397 29.37C32.6197 29.53 32.8097 29.65 33.0097 29.73C33.2097 29.8 33.4397 29.84 33.6997 29.85V30H32.2297C31.6897 30 31.1997 29.955 30.7597 29.865C30.3197 29.765 29.9297 29.6 29.5897 29.37C29.2497 29.14 28.9547 28.83 28.7047 28.44C28.6247 28.32 28.5347 28.17 28.4347 27.99C28.3447 27.8 28.2497 27.6 28.1497 27.39C28.0497 27.18 27.9497 26.98 27.8497 26.79C27.7597 26.59 27.6797 26.41 27.6097 26.25C27.5397 26.09 27.4897 25.965 27.4597 25.875C27.3297 25.555 27.1747 25.315 26.9947 25.155C26.8247 24.995 26.6397 24.9 26.4397 24.87V24.72C26.4697 24.72 26.5297 24.72 26.6197 24.72C26.7097 24.72 26.8047 24.72 26.9047 24.72C27.1747 24.72 27.4347 24.665 27.6847 24.555C27.9447 24.445 28.1747 24.265 28.3747 24.015C28.5747 23.765 28.7147 23.42 28.7947 22.98C28.8147 22.89 28.8297 22.785 28.8397 22.665C28.8597 22.545 28.8647 22.41 28.8547 22.26C28.8247 21.54 28.6447 21.015 28.3147 20.685C27.9847 20.345 27.5747 20.17 27.0847 20.16C26.9447 20.15 26.7897 20.15 26.6197 20.16C26.4597 20.16 26.3097 20.16 26.1697 20.16C26.0397 20.16 25.9497 20.16 25.8997 20.16C25.8997 20.15 25.8847 20.095 25.8547 19.995C25.8347 19.885 25.8097 19.775 25.7797 19.665C25.7597 19.555 25.7497 19.5 25.7497 19.5ZM25.9447 19.5V30H23.6947V19.5H25.9447ZM23.7397 28.905V30H22.5397V29.85C22.5497 29.85 22.5797 29.85 22.6297 29.85C22.6897 29.85 22.7247 29.85 22.7347 29.85C22.9947 29.85 23.2147 29.76 23.3947 29.58C23.5847 29.39 23.6847 29.165 23.6947 28.905H23.7397ZM23.7397 20.595H23.6947C23.6847 20.335 23.5847 20.115 23.3947 19.935C23.2147 19.745 22.9947 19.65 22.7347 19.65C22.7247 19.65 22.6897 19.65 22.6297 19.65C22.5797 19.65 22.5497 19.65 22.5397 19.65V19.5H23.7397V20.595ZM25.8997 28.905H25.9447C25.9447 29.165 26.0397 29.39 26.2297 29.58C26.4197 29.76 26.6447 29.85 26.9047 29.85C26.9247 29.85 26.9597 29.85 27.0097 29.85C27.0597 29.85 27.0847 29.85 27.0847 29.85V30H25.8997V28.905Z" fill="#373232"/>
</svg>
