<svg width="164" height="39" viewBox="0 0 164 39" fill="none" xmlns="http://www.w3.org/2000/svg">
<path d="M52.1428 24V15.2727H53.1996V19.1591H57.853V15.2727H58.9098V24H57.853V20.0966H53.1996V24H52.1428ZM63.5483 24.1364C62.9574 24.1364 62.4389 23.9957 61.9929 23.7145C61.5497 23.4332 61.2031 23.0398 60.9531 22.5341C60.706 22.0284 60.5824 21.4375 60.5824 20.7614C60.5824 20.0795 60.706 19.4844 60.9531 18.9759C61.2031 18.4673 61.5497 18.0724 61.9929 17.7912C62.4389 17.5099 62.9574 17.3693 63.5483 17.3693C64.1392 17.3693 64.6563 17.5099 65.0994 17.7912C65.5455 18.0724 65.892 18.4673 66.1392 18.9759C66.3892 19.4844 66.5142 20.0795 66.5142 20.7614C66.5142 21.4375 66.3892 22.0284 66.1392 22.5341C65.892 23.0398 65.5455 23.4332 65.0994 23.7145C64.6563 23.9957 64.1392 24.1364 63.5483 24.1364ZM63.5483 23.233C63.9972 23.233 64.3665 23.1179 64.6562 22.8878C64.946 22.6577 65.1605 22.3551 65.2997 21.9801C65.4389 21.6051 65.5085 21.1989 65.5085 20.7614C65.5085 20.3239 65.4389 19.9162 65.2997 19.5384C65.1605 19.1605 64.946 18.8551 64.6562 18.6222C64.3665 18.3892 63.9972 18.2727 63.5483 18.2727C63.0994 18.2727 62.7301 18.3892 62.4403 18.6222C62.1506 18.8551 61.9361 19.1605 61.7969 19.5384C61.6577 19.9162 61.5881 20.3239 61.5881 20.7614C61.5881 21.1989 61.6577 21.6051 61.7969 21.9801C61.9361 22.3551 62.1506 22.6577 62.4403 22.8878C62.7301 23.1179 63.0994 23.233 63.5483 23.233ZM68.0494 24V17.4545H69.021V18.4773H69.1062C69.2425 18.1278 69.4627 17.8565 69.7667 17.6634C70.0707 17.4673 70.4357 17.3693 70.8619 17.3693C71.2937 17.3693 71.6531 17.4673 71.94 17.6634C72.2298 17.8565 72.4556 18.1278 72.6175 18.4773H72.6857C72.8533 18.1392 73.1048 17.8707 73.44 17.6719C73.7752 17.4702 74.1772 17.3693 74.646 17.3693C75.2312 17.3693 75.7099 17.5526 76.082 17.919C76.4542 18.2827 76.6403 18.8494 76.6403 19.6193V24H75.6346V19.6193C75.6346 19.1364 75.5025 18.7912 75.2383 18.5838C74.9741 18.3764 74.663 18.2727 74.305 18.2727C73.8448 18.2727 73.4883 18.4119 73.2354 18.6903C72.9826 18.9659 72.8562 19.3153 72.8562 19.7386V24H71.8335V19.517C71.8335 19.1449 71.7127 18.8452 71.4712 18.6179C71.2298 18.3878 70.9187 18.2727 70.538 18.2727C70.2766 18.2727 70.0323 18.3423 69.805 18.4815C69.5806 18.6207 69.3988 18.8139 69.2596 19.0611C69.1232 19.3054 69.055 19.5881 69.055 19.9091V24H68.0494ZM81.2234 24.1364C80.5927 24.1364 80.0487 23.9972 79.5913 23.7188C79.1367 23.4375 78.7859 23.0455 78.5387 22.5426C78.2944 22.0369 78.1722 21.4489 78.1722 20.7784C78.1722 20.108 78.2944 19.517 78.5387 19.0057C78.7859 18.4915 79.1296 18.0909 79.57 17.804C80.0131 17.5142 80.5302 17.3693 81.1211 17.3693C81.462 17.3693 81.7987 17.4261 82.131 17.5398C82.4634 17.6534 82.766 17.8381 83.0387 18.0938C83.3114 18.3466 83.5288 18.6818 83.6907 19.0994C83.8526 19.517 83.9336 20.0312 83.9336 20.642V21.0682H78.8881V20.1989H82.9109C82.9109 19.8295 82.837 19.5 82.6893 19.2102C82.5444 18.9205 82.337 18.6918 82.0671 18.5241C81.8001 18.3565 81.4847 18.2727 81.1211 18.2727C80.7205 18.2727 80.3739 18.3722 80.0813 18.571C79.7915 18.767 79.5685 19.0227 79.4123 19.3381C79.256 19.6534 79.1779 19.9915 79.1779 20.3523V20.9318C79.1779 21.4261 79.2631 21.8452 79.4336 22.1889C79.6069 22.5298 79.8469 22.7898 80.1538 22.9688C80.4606 23.1449 80.8171 23.233 81.2234 23.233C81.4876 23.233 81.7262 23.196 81.9393 23.1222C82.1552 23.0455 82.3413 22.9318 82.4975 22.7812C82.6538 22.6278 82.7745 22.4375 82.8597 22.2102L83.8313 22.483C83.729 22.8125 83.5572 23.1023 83.3157 23.3523C83.0742 23.5994 82.7759 23.7926 82.4208 23.9318C82.0657 24.0682 81.6665 24.1364 81.2234 24.1364ZM85.4634 26.4545V17.4545H86.435V18.4943H86.5543C86.6282 18.3807 86.7305 18.2358 86.8612 18.0597C86.9947 17.8807 87.185 17.7216 87.4322 17.5824C87.6822 17.4403 88.0202 17.3693 88.4464 17.3693C88.9975 17.3693 89.4833 17.5071 89.9038 17.7827C90.3242 18.0582 90.6523 18.4489 90.8881 18.9545C91.1239 19.4602 91.2418 20.0568 91.2418 20.7443C91.2418 21.4375 91.1239 22.0384 90.8881 22.5469C90.6523 23.0526 90.3256 23.4446 89.908 23.723C89.4904 23.9986 89.0089 24.1364 88.4634 24.1364C88.043 24.1364 87.7063 24.0668 87.4535 23.9276C87.2006 23.7855 87.006 23.625 86.8697 23.446C86.7333 23.2642 86.6282 23.1136 86.5543 22.9943H86.4691V26.4545H85.4634ZM86.4521 20.7273C86.4521 21.2216 86.5245 21.6577 86.6694 22.0355C86.8143 22.4105 87.0259 22.7045 87.3043 22.9176C87.5827 23.1278 87.9237 23.233 88.3271 23.233C88.7475 23.233 89.0984 23.1222 89.3796 22.9006C89.6637 22.6761 89.8768 22.375 90.0188 21.9972C90.1637 21.6165 90.2362 21.1932 90.2362 20.7273C90.2362 20.267 90.1651 19.8523 90.0231 19.483C89.8839 19.1108 89.6722 18.8168 89.3881 18.6009C89.1069 18.3821 88.7532 18.2727 88.3271 18.2727C87.918 18.2727 87.5742 18.3764 87.2958 18.5838C87.0174 18.7884 86.8072 19.0753 86.6651 19.4446C86.5231 19.8111 86.4521 20.2386 86.4521 20.7273ZM94.7021 24.1534C94.2873 24.1534 93.9109 24.0753 93.5728 23.919C93.2347 23.7599 92.9663 23.5312 92.7674 23.233C92.5685 22.9318 92.4691 22.5682 92.4691 22.142C92.4691 21.767 92.543 21.4631 92.6907 21.2301C92.8384 20.9943 93.0359 20.8097 93.283 20.6761C93.5302 20.5426 93.8029 20.4432 94.1012 20.3778C94.4023 20.3097 94.7049 20.2557 95.0089 20.2159C95.4066 20.1648 95.729 20.1264 95.9762 20.1009C96.2262 20.0724 96.408 20.0256 96.5217 19.9602C96.6381 19.8949 96.6964 19.7812 96.6964 19.6193V19.5852C96.6964 19.1648 96.5813 18.8381 96.3512 18.6051C96.1239 18.3722 95.7788 18.2557 95.3157 18.2557C94.8356 18.2557 94.4592 18.3608 94.1864 18.571C93.9137 18.7812 93.7219 19.0057 93.6112 19.2443L92.6566 18.9034C92.8271 18.5057 93.0543 18.196 93.3384 17.9744C93.6254 17.75 93.9379 17.5937 94.2759 17.5057C94.6168 17.4148 94.9521 17.3693 95.2816 17.3693C95.4918 17.3693 95.7333 17.3949 96.006 17.446C96.2816 17.4943 96.5472 17.5952 96.8029 17.7486C97.0614 17.902 97.2759 18.1335 97.4464 18.4432C97.6168 18.7528 97.7021 19.1676 97.7021 19.6875V24H96.6964V23.1136H96.6452C96.5771 23.2557 96.4634 23.4077 96.3043 23.5696C96.1452 23.7315 95.9336 23.8693 95.6694 23.983C95.4052 24.0966 95.0827 24.1534 94.7021 24.1534ZM94.8555 23.25C95.2532 23.25 95.5884 23.1719 95.8612 23.0156C96.1367 22.8594 96.3441 22.6577 96.4833 22.4105C96.6254 22.1634 96.6964 21.9034 96.6964 21.6307V20.7102C96.6538 20.7614 96.56 20.8082 96.4151 20.8509C96.2731 20.8906 96.1083 20.9261 95.9208 20.9574C95.7362 20.9858 95.5558 21.0114 95.3796 21.0341C95.2063 21.054 95.0657 21.071 94.9577 21.0852C94.6964 21.1193 94.4521 21.1747 94.2248 21.2514C94.0004 21.3253 93.8185 21.4375 93.6793 21.5881C93.543 21.7358 93.4748 21.9375 93.4748 22.1932C93.4748 22.5426 93.604 22.8068 93.8626 22.9858C94.1239 23.1619 94.4549 23.25 94.8555 23.25ZM102.18 26.5909C101.694 26.5909 101.276 26.5284 100.927 26.4034C100.577 26.2812 100.286 26.1193 100.053 25.9176C99.8232 25.7188 99.6399 25.5057 99.5036 25.2784L100.305 24.7159C100.396 24.8352 100.511 24.9716 100.65 25.125C100.789 25.2812 100.979 25.4162 101.221 25.5298C101.465 25.6463 101.785 25.7045 102.18 25.7045C102.708 25.7045 103.144 25.5767 103.488 25.321C103.832 25.0653 104.004 24.6648 104.004 24.1193V22.7898H103.918C103.844 22.9091 103.739 23.0568 103.603 23.233C103.469 23.4062 103.276 23.5611 103.023 23.6974C102.773 23.831 102.435 23.8977 102.009 23.8977C101.481 23.8977 101.006 23.7727 100.586 23.5227C100.168 23.2727 99.8374 22.9091 99.593 22.4318C99.3516 21.9545 99.2308 21.375 99.2308 20.6932C99.2308 20.0227 99.3487 19.4389 99.5845 18.9418C99.8203 18.4418 100.148 18.0554 100.569 17.7827C100.989 17.5071 101.475 17.3693 102.026 17.3693C102.452 17.3693 102.79 17.4403 103.04 17.5824C103.293 17.7216 103.487 17.8807 103.62 18.0597C103.756 18.2358 103.862 18.3807 103.935 18.4943H104.038V17.4545H105.009V24.1875C105.009 24.75 104.881 25.2074 104.626 25.5597C104.373 25.9148 104.032 26.1747 103.603 26.3395C103.177 26.5071 102.702 26.5909 102.18 26.5909ZM102.146 22.9943C102.549 22.9943 102.89 22.902 103.168 22.7173C103.447 22.5327 103.658 22.267 103.803 21.9205C103.948 21.5739 104.021 21.1591 104.021 20.6761C104.021 20.2045 103.95 19.7884 103.808 19.4276C103.665 19.0668 103.455 18.7841 103.177 18.5795C102.898 18.375 102.555 18.2727 102.146 18.2727C101.719 18.2727 101.364 18.3807 101.08 18.5966C100.799 18.8125 100.587 19.1023 100.445 19.4659C100.306 19.8295 100.237 20.233 100.237 20.6761C100.237 21.1307 100.308 21.5327 100.45 21.8821C100.594 22.2287 100.808 22.5014 101.089 22.7003C101.373 22.8963 101.725 22.9943 102.146 22.9943ZM109.594 24.1364C108.964 24.1364 108.42 23.9972 107.962 23.7188C107.508 23.4375 107.157 23.0455 106.91 22.5426C106.665 22.0369 106.543 21.4489 106.543 20.7784C106.543 20.108 106.665 19.517 106.91 19.0057C107.157 18.4915 107.501 18.0909 107.941 17.804C108.384 17.5142 108.901 17.3693 109.492 17.3693C109.833 17.3693 110.17 17.4261 110.502 17.5398C110.835 17.6534 111.137 17.8381 111.41 18.0938C111.683 18.3466 111.9 18.6818 112.062 19.0994C112.224 19.517 112.305 20.0312 112.305 20.642V21.0682H107.259V20.1989H111.282C111.282 19.8295 111.208 19.5 111.06 19.2102C110.915 18.9205 110.708 18.6918 110.438 18.5241C110.171 18.3565 109.856 18.2727 109.492 18.2727C109.092 18.2727 108.745 18.3722 108.452 18.571C108.163 18.767 107.94 19.0227 107.783 19.3381C107.627 19.6534 107.549 19.9915 107.549 20.3523V20.9318C107.549 21.4261 107.634 21.8452 107.805 22.1889C107.978 22.5298 108.218 22.7898 108.525 22.9688C108.832 23.1449 109.188 23.233 109.594 23.233C109.859 23.233 110.097 23.196 110.31 23.1222C110.526 23.0455 110.712 22.9318 110.869 22.7812C111.025 22.6278 111.146 22.4375 111.231 22.2102L112.202 22.483C112.1 22.8125 111.928 23.1023 111.687 23.3523C111.445 23.5994 111.147 23.7926 110.792 23.9318C110.437 24.0682 110.038 24.1364 109.594 24.1364Z" fill="black"/>
<rect x="0.5" y="0.5" width="163" height="38" stroke="black"/>
</svg>
