<svg width="164" height="39" viewBox="0 0 164 39" fill="none" xmlns="http://www.w3.org/2000/svg">
<path d="M43.1271 24V15.2727H46.076C46.7607 15.2727 47.3203 15.3963 47.755 15.6435C48.1925 15.8878 48.5163 16.2188 48.7266 16.6364C48.9368 17.054 49.0419 17.5199 49.0419 18.0341C49.0419 18.5483 48.9368 19.0156 48.7266 19.4361C48.5192 19.8565 48.1982 20.1918 47.7635 20.4418C47.3288 20.6889 46.772 20.8125 46.093 20.8125H43.9794V19.875H46.0589C46.5277 19.875 46.9041 19.794 47.1882 19.6321C47.4723 19.4702 47.6783 19.2514 47.8061 18.9759C47.9368 18.6974 48.0021 18.3835 48.0021 18.0341C48.0021 17.6847 47.9368 17.3722 47.8061 17.0966C47.6783 16.821 47.4709 16.6051 47.1839 16.4489C46.897 16.2898 46.5163 16.2102 46.0419 16.2102H44.1839V24H43.1271ZM52.5341 24.1534C52.1193 24.1534 51.7429 24.0753 51.4048 23.919C51.0668 23.7599 50.7983 23.5312 50.5994 23.233C50.4006 22.9318 50.3011 22.5682 50.3011 22.142C50.3011 21.767 50.375 21.4631 50.5227 21.2301C50.6705 20.9943 50.8679 20.8097 51.1151 20.6761C51.3622 20.5426 51.6349 20.4432 51.9332 20.3778C52.2344 20.3097 52.5369 20.2557 52.8409 20.2159C53.2386 20.1648 53.5611 20.1264 53.8082 20.1009C54.0582 20.0724 54.2401 20.0256 54.3537 19.9602C54.4702 19.8949 54.5284 19.7812 54.5284 19.6193V19.5852C54.5284 19.1648 54.4134 18.8381 54.1832 18.6051C53.956 18.3722 53.6108 18.2557 53.1477 18.2557C52.6676 18.2557 52.2912 18.3608 52.0185 18.571C51.7457 18.7812 51.554 19.0057 51.4432 19.2443L50.4886 18.9034C50.6591 18.5057 50.8864 18.196 51.1705 17.9744C51.4574 17.75 51.7699 17.5937 52.108 17.5057C52.4489 17.4148 52.7841 17.3693 53.1136 17.3693C53.3239 17.3693 53.5653 17.3949 53.8381 17.446C54.1136 17.4943 54.3793 17.5952 54.6349 17.7486C54.8935 17.902 55.108 18.1335 55.2784 18.4432C55.4489 18.7528 55.5341 19.1676 55.5341 19.6875V24H54.5284V23.1136H54.4773C54.4091 23.2557 54.2955 23.4077 54.1364 23.5696C53.9773 23.7315 53.7656 23.8693 53.5014 23.983C53.2372 24.0966 52.9148 24.1534 52.5341 24.1534ZM52.6875 23.25C53.0852 23.25 53.4205 23.1719 53.6932 23.0156C53.9688 22.8594 54.1761 22.6577 54.3153 22.4105C54.4574 22.1634 54.5284 21.9034 54.5284 21.6307V20.7102C54.4858 20.7614 54.392 20.8082 54.2472 20.8509C54.1051 20.8906 53.9403 20.9261 53.7528 20.9574C53.5682 20.9858 53.3878 21.0114 53.2116 21.0341C53.0384 21.054 52.8977 21.071 52.7898 21.0852C52.5284 21.1193 52.2841 21.1747 52.0568 21.2514C51.8324 21.3253 51.6506 21.4375 51.5114 21.5881C51.375 21.7358 51.3068 21.9375 51.3068 22.1932C51.3068 22.5426 51.4361 22.8068 51.6946 22.9858C51.956 23.1619 52.2869 23.25 52.6875 23.25ZM60.0117 26.5909C59.5259 26.5909 59.1083 26.5284 58.7589 26.4034C58.4094 26.2812 58.1183 26.1193 57.8853 25.9176C57.6552 25.7188 57.4719 25.5057 57.3356 25.2784L58.1367 24.7159C58.2276 24.8352 58.3427 24.9716 58.4819 25.125C58.6211 25.2812 58.8114 25.4162 59.0529 25.5298C59.2972 25.6463 59.6168 25.7045 60.0117 25.7045C60.5401 25.7045 60.9762 25.5767 61.32 25.321C61.6637 25.0653 61.8356 24.6648 61.8356 24.1193V22.7898H61.7504C61.6765 22.9091 61.5714 23.0568 61.435 23.233C61.3015 23.4062 61.1083 23.5611 60.8555 23.6974C60.6055 23.831 60.2674 23.8977 59.8413 23.8977C59.3129 23.8977 58.8384 23.7727 58.418 23.5227C58.0004 23.2727 57.6694 22.9091 57.4251 22.4318C57.1836 21.9545 57.0629 21.375 57.0629 20.6932C57.0629 20.0227 57.1808 19.4389 57.4165 18.9418C57.6523 18.4418 57.9805 18.0554 58.4009 17.7827C58.8214 17.5071 59.3072 17.3693 59.8583 17.3693C60.2844 17.3693 60.6225 17.4403 60.8725 17.5824C61.1254 17.7216 61.3185 17.8807 61.4521 18.0597C61.5884 18.2358 61.6935 18.3807 61.7674 18.4943H61.8697V17.4545H62.8413V24.1875C62.8413 24.75 62.7134 25.2074 62.4577 25.5597C62.2049 25.9148 61.864 26.1747 61.435 26.3395C61.0089 26.5071 60.5344 26.5909 60.0117 26.5909ZM59.9776 22.9943C60.381 22.9943 60.7219 22.902 61.0004 22.7173C61.2788 22.5327 61.4904 22.267 61.6353 21.9205C61.7802 21.5739 61.8526 21.1591 61.8526 20.6761C61.8526 20.2045 61.7816 19.7884 61.6396 19.4276C61.4975 19.0668 61.2873 18.7841 61.0089 18.5795C60.7305 18.375 60.3867 18.2727 59.9776 18.2727C59.5515 18.2727 59.1964 18.3807 58.9123 18.5966C58.631 18.8125 58.4194 19.1023 58.2773 19.4659C58.1381 19.8295 58.0685 20.233 58.0685 20.6761C58.0685 21.1307 58.1396 21.5327 58.2816 21.8821C58.4265 22.2287 58.6396 22.5014 58.9208 22.7003C59.2049 22.8963 59.5572 22.9943 59.9776 22.9943ZM67.4265 24.1364C66.7958 24.1364 66.2518 23.9972 65.7944 23.7188C65.3398 23.4375 64.989 23.0455 64.7418 22.5426C64.4975 22.0369 64.3754 21.4489 64.3754 20.7784C64.3754 20.108 64.4975 19.517 64.7418 19.0057C64.989 18.4915 65.3327 18.0909 65.7731 17.804C66.2163 17.5142 66.7333 17.3693 67.3242 17.3693C67.6651 17.3693 68.0018 17.4261 68.3342 17.5398C68.6665 17.6534 68.9691 17.8381 69.2418 18.0938C69.5146 18.3466 69.7319 18.6818 69.8938 19.0994C70.0558 19.517 70.1367 20.0312 70.1367 20.642V21.0682H65.0913V20.1989H69.114C69.114 19.8295 69.0401 19.5 68.8924 19.2102C68.7475 18.9205 68.5401 18.6918 68.2702 18.5241C68.0032 18.3565 67.6879 18.2727 67.3242 18.2727C66.9237 18.2727 66.5771 18.3722 66.2844 18.571C65.9947 18.767 65.7717 19.0227 65.6154 19.3381C65.4592 19.6534 65.381 19.9915 65.381 20.3523V20.9318C65.381 21.4261 65.4663 21.8452 65.6367 22.1889C65.81 22.5298 66.0501 22.7898 66.3569 22.9688C66.6637 23.1449 67.0202 23.233 67.4265 23.233C67.6907 23.233 67.9293 23.196 68.1424 23.1222C68.3583 23.0455 68.5444 22.9318 68.7006 22.7812C68.8569 22.6278 68.9776 22.4375 69.0629 22.2102L70.0344 22.483C69.9322 22.8125 69.7603 23.1023 69.5188 23.3523C69.2773 23.5994 68.979 23.7926 68.6239 23.9318C68.2688 24.0682 67.8697 24.1364 67.4265 24.1364ZM77.5131 24.1364C76.9677 24.1364 76.4862 23.9986 76.0685 23.723C75.6509 23.4446 75.3242 23.0526 75.0884 22.5469C74.8526 22.0384 74.7347 21.4375 74.7347 20.7443C74.7347 20.0568 74.8526 19.4602 75.0884 18.9545C75.3242 18.4489 75.6523 18.0582 76.0728 17.7827C76.4933 17.5071 76.979 17.3693 77.5302 17.3693C77.9563 17.3693 78.293 17.4403 78.5401 17.5824C78.7901 17.7216 78.9805 17.8807 79.1112 18.0597C79.2447 18.2358 79.3484 18.3807 79.4222 18.4943H79.5075V15.2727H80.5131V24H79.5415V22.9943H79.4222C79.3484 23.1136 79.2433 23.2642 79.1069 23.446C78.9705 23.625 78.7759 23.7855 78.5231 23.9276C78.2702 24.0668 77.9336 24.1364 77.5131 24.1364ZM77.6495 23.233C78.0529 23.233 78.3938 23.1278 78.6722 22.9176C78.9506 22.7045 79.1623 22.4105 79.3072 22.0355C79.4521 21.6577 79.5245 21.2216 79.5245 20.7273C79.5245 20.2386 79.4535 19.8111 79.3114 19.4446C79.1694 19.0753 78.9592 18.7884 78.6808 18.5838C78.4023 18.3764 78.0586 18.2727 77.6495 18.2727C77.2234 18.2727 76.8683 18.3821 76.5842 18.6009C76.3029 18.8168 76.0913 19.1108 75.9492 19.483C75.81 19.8523 75.7404 20.267 75.7404 20.7273C75.7404 21.1932 75.8114 21.6165 75.9535 21.9972C76.0984 22.375 76.3114 22.6761 76.5927 22.9006C76.8768 23.1222 77.229 23.233 77.6495 23.233ZM83.381 15.2727V16.0398C83.381 16.2727 83.3384 16.5213 83.2532 16.7855C83.1708 17.0469 83.0487 17.3011 82.8867 17.5483C82.7276 17.7926 82.5344 18.0057 82.3072 18.1875L81.7617 17.7443C81.9407 17.4886 82.0955 17.223 82.2262 16.9474C82.3597 16.669 82.4265 16.3722 82.4265 16.0568V15.2727H83.381ZM85.956 24.1534C85.5412 24.1534 85.1648 24.0753 84.8267 23.919C84.4886 23.7599 84.2202 23.5312 84.0213 23.233C83.8224 22.9318 83.723 22.5682 83.723 22.142C83.723 21.767 83.7969 21.4631 83.9446 21.2301C84.0923 20.9943 84.2898 20.8097 84.5369 20.6761C84.7841 20.5426 85.0568 20.4432 85.3551 20.3778C85.6563 20.3097 85.9588 20.2557 86.2628 20.2159C86.6605 20.1648 86.983 20.1264 87.2301 20.1009C87.4801 20.0724 87.6619 20.0256 87.7756 19.9602C87.892 19.8949 87.9503 19.7812 87.9503 19.6193V19.5852C87.9503 19.1648 87.8352 18.8381 87.6051 18.6051C87.3778 18.3722 87.0327 18.2557 86.5696 18.2557C86.0895 18.2557 85.7131 18.3608 85.4403 18.571C85.1676 18.7812 84.9759 19.0057 84.8651 19.2443L83.9105 18.9034C84.081 18.5057 84.3082 18.196 84.5923 17.9744C84.8793 17.75 85.1918 17.5937 85.5298 17.5057C85.8707 17.4148 86.206 17.3693 86.5355 17.3693C86.7457 17.3693 86.9872 17.3949 87.2599 17.446C87.5355 17.4943 87.8011 17.5952 88.0568 17.7486C88.3153 17.902 88.5298 18.1335 88.7003 18.4432C88.8707 18.7528 88.956 19.1676 88.956 19.6875V24H87.9503V23.1136H87.8991C87.831 23.2557 87.7173 23.4077 87.5582 23.5696C87.3991 23.7315 87.1875 23.8693 86.9233 23.983C86.6591 24.0966 86.3366 24.1534 85.956 24.1534ZM86.1094 23.25C86.5071 23.25 86.8423 23.1719 87.1151 23.0156C87.3906 22.8594 87.598 22.6577 87.7372 22.4105C87.8793 22.1634 87.9503 21.9034 87.9503 21.6307V20.7102C87.9077 20.7614 87.8139 20.8082 87.669 20.8509C87.527 20.8906 87.3622 20.9261 87.1747 20.9574C86.9901 20.9858 86.8097 21.0114 86.6335 21.0341C86.4602 21.054 86.3196 21.071 86.2116 21.0852C85.9503 21.1193 85.706 21.1747 85.4787 21.2514C85.2543 21.3253 85.0724 21.4375 84.9332 21.5881C84.7969 21.7358 84.7287 21.9375 84.7287 22.1932C84.7287 22.5426 84.858 22.8068 85.1165 22.9858C85.3778 23.1619 85.7088 23.25 86.1094 23.25ZM93.4506 24.1364C92.837 24.1364 92.3086 23.9915 91.8654 23.7017C91.4222 23.4119 91.0813 23.0128 90.8427 22.5043C90.604 21.9957 90.4847 21.4148 90.4847 20.7614C90.4847 20.0966 90.6069 19.5099 90.8512 19.0014C91.0984 18.4901 91.4421 18.0909 91.8825 17.804C92.3256 17.5142 92.8427 17.3693 93.4336 17.3693C93.8938 17.3693 94.3086 17.4545 94.6779 17.625C95.0472 17.7955 95.3498 18.0341 95.5856 18.3409C95.8214 18.6477 95.9677 19.0057 96.0245 19.4148H95.0188C94.9421 19.1165 94.7717 18.8523 94.5075 18.6222C94.2461 18.3892 93.8938 18.2727 93.4506 18.2727C93.0586 18.2727 92.7148 18.375 92.4194 18.5795C92.1268 18.7812 91.8981 19.0668 91.7333 19.4361C91.5714 19.8026 91.4904 20.233 91.4904 20.7273C91.4904 21.233 91.57 21.6733 91.729 22.0483C91.891 22.4233 92.1183 22.7145 92.4109 22.9219C92.7063 23.1293 93.0529 23.233 93.4506 23.233C93.712 23.233 93.9492 23.1875 94.1623 23.0966C94.3754 23.0057 94.5558 22.875 94.7035 22.7045C94.8512 22.5341 94.9563 22.3295 95.0188 22.0909H96.0245C95.9677 22.4773 95.8271 22.8253 95.6026 23.1349C95.381 23.4418 95.087 23.6861 94.7205 23.8679C94.3569 24.0469 93.9336 24.1364 93.4506 24.1364ZM100.154 24.1364C99.5401 24.1364 99.0117 23.9915 98.5685 23.7017C98.1254 23.4119 97.7844 23.0128 97.5458 22.5043C97.3072 21.9957 97.1879 21.4148 97.1879 20.7614C97.1879 20.0966 97.31 19.5099 97.5543 19.0014C97.8015 18.4901 98.1452 18.0909 98.5856 17.804C99.0288 17.5142 99.5458 17.3693 100.137 17.3693C100.597 17.3693 101.012 17.4545 101.381 17.625C101.75 17.7955 102.053 18.0341 102.289 18.3409C102.525 18.6477 102.671 19.0057 102.728 19.4148H101.722C101.645 19.1165 101.475 18.8523 101.211 18.6222C100.949 18.3892 100.597 18.2727 100.154 18.2727C99.7617 18.2727 99.418 18.375 99.1225 18.5795C98.8299 18.7812 98.6012 19.0668 98.4364 19.4361C98.2745 19.8026 98.1935 20.233 98.1935 20.7273C98.1935 21.233 98.2731 21.6733 98.4322 22.0483C98.5941 22.4233 98.8214 22.7145 99.114 22.9219C99.4094 23.1293 99.756 23.233 100.154 23.233C100.415 23.233 100.652 23.1875 100.865 23.0966C101.078 23.0057 101.259 22.875 101.407 22.7045C101.554 22.5341 101.659 22.3295 101.722 22.0909H102.728C102.671 22.4773 102.53 22.8253 102.306 23.1349C102.084 23.4418 101.79 23.6861 101.424 23.8679C101.06 24.0469 100.637 24.1364 100.154 24.1364ZM108.323 21.3239V17.4545H109.328V24H108.323V22.892H108.255C108.101 23.2244 107.863 23.5071 107.539 23.7401C107.215 23.9702 106.806 24.0852 106.311 24.0852C105.902 24.0852 105.539 23.9957 105.221 23.8168C104.902 23.6349 104.652 23.3622 104.471 22.9986C104.289 22.6321 104.198 22.1705 104.198 21.6136V17.4545H105.203V21.5455C105.203 22.0227 105.337 22.4034 105.604 22.6875C105.874 22.9716 106.218 23.1136 106.635 23.1136C106.885 23.1136 107.14 23.0497 107.398 22.9219C107.659 22.794 107.878 22.598 108.054 22.3338C108.233 22.0696 108.323 21.733 108.323 21.3239ZM113.915 24.1364C113.284 24.1364 112.74 23.9972 112.283 23.7188C111.828 23.4375 111.477 23.0455 111.23 22.5426C110.986 22.0369 110.864 21.4489 110.864 20.7784C110.864 20.108 110.986 19.517 111.23 19.0057C111.477 18.4915 111.821 18.0909 112.261 17.804C112.705 17.5142 113.222 17.3693 113.812 17.3693C114.153 17.3693 114.49 17.4261 114.822 17.5398C115.155 17.6534 115.457 17.8381 115.73 18.0938C116.003 18.3466 116.22 18.6818 116.382 19.0994C116.544 19.517 116.625 20.0312 116.625 20.642V21.0682H111.58V20.1989H115.602C115.602 19.8295 115.528 19.5 115.381 19.2102C115.236 18.9205 115.028 18.6918 114.759 18.5241C114.491 18.3565 114.176 18.2727 113.812 18.2727C113.412 18.2727 113.065 18.3722 112.773 18.571C112.483 18.767 112.26 19.0227 112.104 19.3381C111.947 19.6534 111.869 19.9915 111.869 20.3523V20.9318C111.869 21.4261 111.955 21.8452 112.125 22.1889C112.298 22.5298 112.538 22.7898 112.845 22.9688C113.152 23.1449 113.509 23.233 113.915 23.233C114.179 23.233 114.418 23.196 114.631 23.1222C114.847 23.0455 115.033 22.9318 115.189 22.7812C115.345 22.6278 115.466 22.4375 115.551 22.2102L116.523 22.483C116.42 22.8125 116.249 23.1023 116.007 23.3523C115.766 23.5994 115.467 23.7926 115.112 23.9318C114.757 24.0682 114.358 24.1364 113.915 24.1364ZM118.155 24V17.4545H119.161V24H118.155ZM118.666 16.3636C118.47 16.3636 118.301 16.2969 118.159 16.1634C118.02 16.0298 117.95 15.8693 117.95 15.6818C117.95 15.4943 118.02 15.3338 118.159 15.2003C118.301 15.0668 118.47 15 118.666 15C118.862 15 119.03 15.0668 119.169 15.2003C119.311 15.3338 119.382 15.4943 119.382 15.6818C119.382 15.8693 119.311 16.0298 119.169 16.1634C119.03 16.2969 118.862 16.3636 118.666 16.3636ZM122.008 15.2727V24H121.002V15.2727H122.008Z" fill="black"/>
<rect x="0.5" y="0.5" width="163" height="38" stroke="black"/>
</svg>
