<svg width="18" height="17" viewBox="0 0 18 17" fill="none" xmlns="http://www.w3.org/2000/svg">
<path d="M13 1H5C2.79086 1 1 2.67893 1 4.75V12.25C1 14.3211 2.79086 16 5 16H13C15.2091 16 17 14.3211 17 12.25V4.75C17 2.67893 15.2091 1 13 1Z" stroke="#373232" stroke-width="2" stroke-linecap="round" stroke-linejoin="round"/>
<path d="M12.2 8.02748C12.2987 8.65167 12.185 9.28914 11.875 9.84924C11.565 10.4093 11.0745 10.8635 10.4733 11.1472C9.87207 11.4309 9.19074 11.5297 8.52621 11.4294C7.86169 11.3292 7.24779 11.035 6.77186 10.5889C6.29592 10.1427 5.98217 9.56714 5.87524 8.94414C5.76831 8.32115 5.87364 7.6824 6.17625 7.11876C6.47886 6.55512 6.96333 6.09529 7.56077 5.80466C8.15821 5.51404 8.83819 5.40742 9.50399 5.49998C10.1831 5.5944 10.8119 5.89108 11.2973 6.34621C11.7828 6.80134 12.0993 7.39079 12.2 8.02748Z" stroke="#373232" stroke-width="2" stroke-linecap="round" stroke-linejoin="round"/>
<path d="M13.4 4.375H13.408" stroke="#373232" stroke-width="2" stroke-linecap="round" stroke-linejoin="round"/>
</svg>
