<svg width="19" height="16" viewBox="0 0 19 16" fill="none" xmlns="http://www.w3.org/2000/svg">
<path d="M18 1.00785C17.26 1.53487 16.4407 1.93795 15.5736 2.20158C15.1083 1.66129 14.4898 1.27834 13.8018 1.10454C13.1138 0.930729 12.3896 0.974449 11.7271 1.22978C11.0645 1.48511 10.4956 1.93974 10.0973 2.53217C9.69899 3.1246 9.49049 3.82626 9.5 4.54224V5.32246C8.14203 5.35801 6.79644 5.05391 5.58305 4.43726C4.36967 3.8206 3.32615 2.91052 2.54545 1.78806C2.54545 1.78806 -0.545455 8.81003 6.40909 11.9309C4.81768 13.0216 2.92189 13.5685 1 13.4913C7.95455 17.3924 16.4545 13.4913 16.4545 4.51883C16.4538 4.3015 16.4331 4.08471 16.3927 3.87125C17.1814 3.08595 17.7379 2.09447 18 1.00785V1.00785Z" stroke="#373232" stroke-width="2" stroke-linecap="round" stroke-linejoin="round"/>
</svg>
